<svg id="Layer_1" data-name="Layer 1" xmlns="http://www.w3.org/2000/svg" viewBox="0 0 2656.06 521.57"><path d="M170.1,509.59a15.35,15.35,0,0,1-14.44-10.23c-1-2.85-2-5.67-3-8.49-4.26-11.84-8.67-24.09-11.9-36.56-2.77-10.67,4.8-22.17,7.19-25.43,34.81-47.67,42.1-107.1,19.5-159-22.7-52.08-71.51-87.35-130.56-94.35-12.13-1.44-24.53-5.75-24.57-26.84,0-9.48,0-9.95.12-14.46l0-1.59c.29-11,.47-17.59,2.47-23C17.79,101.93,24.08,98,33.6,98c4.58,0,10,.77,18.32,2,64.06,9.67,116.24,39.67,155.17,89.18C234.24,120.92,275,64.91,331.49,18.25a21.86,21.86,0,0,1,30.31,2.4l19.79,22.41a22,22,0,0,1-1.66,30.63c-4.65,4.23-9.92,9-14.94,13.72-36.12,33.77-63.55,71.14-81.53,111.1C265,239.64,255.79,285,256.22,333.34c.55,60.7-21,114.86-64.1,161-4.05,4.33-8.39,8.22-12.14,11.53-.3.27-.59.5-.89.73a14.86,14.86,0,0,1-9,3Z" style="fill:#1899d7"/><path d="M345.4,23.25a11.86,11.86,0,0,1,8.91,4c6.52,7.4,13,14.72,19.78,22.41a11.87,11.87,0,0,1-.9,16.63c-5.2,4.74-10.14,9.24-15,13.81-73.37,68.57-112.86,151.79-112,253.32.53,59.29-20.88,110.68-61.41,154.07-3.58,3.84-7.5,7.38-11.44,10.86l-.27.22a4.93,4.93,0,0,1-3,1,5.37,5.37,0,0,1-5-3.57c-5.27-14.89-10.82-29.34-14.68-44.22-1.28-4.92,2.15-12.33,5.58-17C234.72,327,171.2,181.42,38,165.64c-11.47-1.36-15.73-4.49-15.75-16.93,0-10.35,0-9.77.16-15.77.51-19.41.68-25,11.16-25,3.95,0,9.37.79,16.83,1.92,62.57,9.44,113.43,38.66,151.7,89.23a55.08,55.08,0,0,0,4.47,5.39,2.44,2.44,0,0,0,.42.35,3.43,3.43,0,0,0,2,.61,3.79,3.79,0,0,0,3.51-2.46C238.29,133.49,279,74.58,337.86,26a11.8,11.8,0,0,1,7.54-2.71m0-20a31.91,31.91,0,0,0-20.28,7.29A426.59,426.59,0,0,0,204.22,170.2c-39.22-44-89.85-70.87-150.81-80.07C44.61,88.8,38.88,88,33.6,88,15.07,88,8.06,99.41,5.53,106.22s-2.78,14.6-3.08,26.2l0,1.57c-.13,4.69-.14,5.39-.13,14.75,0,7.43,1,18.27,9.42,26.71,7.23,7.24,16.61,9.18,24,10.05,28.71,3.4,54.33,13.42,76.14,29.77a146.66,146.66,0,0,1,46.42,58.64,146.23,146.23,0,0,1,11.36,73.58c-2.84,26.93-12.85,52.33-29.77,75.49-3,4.16-12.66,18.91-8.79,33.84,3.35,12.92,7.83,25.38,12.17,37.44q1.51,4.2,3,8.44a25.38,25.38,0,0,0,23.87,16.89,24.81,24.81,0,0,0,15-5c.5-.38,1-.77,1.45-1.18,3.93-3.47,8.48-7.55,12.84-12.22,44.89-48.06,67.36-104.55,66.79-167.9-.42-46.88,8.45-90.83,26.36-130.64,17.43-38.74,44.09-75,79.24-107.89,4.95-4.63,10.21-9.42,14.84-13.64a31.87,31.87,0,0,0,2.42-44.64L380,26.15,369.3,14A31.9,31.9,0,0,0,345.4,3.25Z" style="fill:#1899d7"/><path d="M505.57,383.57,527.17,325q15.35,8.17,38.16,15.12t40.56,7q24,0,37-8.4t13-22.32q0-9.11-9.84-16.8t-31.92-20.64q-4.81-2.39-14.4-8.16Q567,251.11,548.53,238.13a136.85,136.85,0,0,1-32.64-32.64,73.71,73.71,0,0,1-14.16-44.16q.47-25.92,14.64-46.32t40.56-32.16q26.39-11.75,61.92-11.76a187.52,187.52,0,0,1,49.44,7q25.43,7,44.64,18.48l-23,54.72q-23-9.58-37.92-13.44A128.93,128.93,0,0,0,619.81,134q-17.77,0-29,7.44t-11.28,20.4q0,10.58,9.36,18.48t30,19a115.05,115.05,0,0,1,15.84,8.64q34.56,20.16,52.8,32.88a134,134,0,0,1,32.16,32.16q13.9,19.44,13.92,44.4,0,26.9-15.12,48t-43.68,33.12q-28.57,12-67.44,12-22.58,0-53.52-8.16T505.57,383.57Z" style="fill:#191919"/><path d="M945.24,404.21,905.4,272.69,866.52,404.21H800.28l-70.56-220.8,71-20.64,35,142.08,32.64-133.44h75.84l35,133.44L1011,171.41h76.32l-75.84,232.8Z" style="fill:#191919"/><path d="M1135.32,139.25q-16.8,0-29-12.24T1094,98a40.23,40.23,0,0,1,12.24-29.52q12.24-12.24,29-12.24A41.79,41.79,0,0,1,1177.08,98q0,16.82-12.24,29A40.23,40.23,0,0,1,1135.32,139.25Zm-37.44,265V171.41h75.36v232.8Z" style="fill:#191919"/><path d="M1344.11,176.69l13.44,58.56h-65.28V313q0,16.33,8.16,26.4T1323,349.49a64.26,64.26,0,0,0,29.76-7.68l21.6,52.32q-8.16,6.74-25,12a104.51,104.51,0,0,1-31.2,5.28q-44.16,0-72.48-23t-28.32-65.28V235.25h-33.6V176.69h33.6v-59l74.88-11.52v70.56Z" style="fill:#191919"/><path d="M1577.39,188.21l-21.12,52.32q-16.32-7.67-28.32-10.8a103.22,103.22,0,0,0-25.92-3.12q-22.56,0-37.68,17.28t-15.12,44.16q0,26.9,15.12,43.2T1502,347.57a98.9,98.9,0,0,0,25.92-3.36,162.47,162.47,0,0,0,28.32-11l21.12,52.8q-16.32,13-38.64,18.24a181.06,181.06,0,0,1-41.52,5.28q-37.44,0-66-14.4a102.6,102.6,0,0,1-44.16-42q-15.6-27.58-15.6-65t15.6-65.52a106.35,106.35,0,0,1,44.16-43.2q28.56-15.12,66-15.12,18.24,0,40.8,5.76A111.61,111.61,0,0,1,1577.39,188.21Z" style="fill:#191919"/><path d="M1827.94,255.89V404.21h-74.88V261.65q0-16.78-7.44-26.64t-21.84-9.84q-20.16,0-54.72,20.16V404.21h-74.88V70.61l74.88-5.28v121A220.94,220.94,0,0,1,1707.7,170a127.9,127.9,0,0,1,38.17-6.24Q1827.94,163.73,1827.94,255.89Z" style="fill:#191919"/><path d="M2032.42,77.81l123.84,322.56L2082.34,409l-26.4-75.36H1937.38l-25.44,70.56h-74.88l124.8-326.4Zm-37,95-37,101.28h75.36Z" style="fill:#191919"/><path d="M2370.1,195.89Q2402,227.57,2402,285.65t-32.4,91q-32.4,32.89-88.56,32.88-17.28,0-36.48-7.68V504.53l-74.88,4.8V171.89h37.92l13,14.4q30.24-22.06,63.36-22.08Q2338.18,164.21,2370.1,195.89ZM2311.78,332q13-17.5,13-45.84,0-28.8-13-45.12t-36-16.32q-14.88,0-31.2,11V339.41q16.3,10.08,33.12,10.08Q2298.82,349.49,2311.78,332Z" style="fill:#191919"/><path d="M2622.09,195.89Q2654,227.57,2654,285.65t-32.4,91q-32.4,32.89-88.56,32.88-17.28,0-36.48-7.68V504.53l-74.88,4.8V171.89h37.92l13,14.4q30.24-22.06,63.36-22.08Q2590.17,164.21,2622.09,195.89ZM2563.77,332q13-17.5,13-45.84,0-28.8-13-45.12t-36-16.32q-14.88,0-31.2,11V339.41q16.32,10.08,33.12,10.08Q2550.81,349.49,2563.77,332Z" style="fill:#191919"/></svg>